Coordinates
version=1
nRows=12
nColumns=19
inDegrees=yes

Units are S.I. units (second, meters, Newtons, ...)
If the header above contains a line with 'inDegrees', this indicates whether rotational values are in degrees (yes) or radians (no).

endheader
time	pelvis_to_ground_rx	pelvis_to_ground_ry	pelvis_to_ground_rz	pelvis_to_ground_tx	pelvis_to_ground_ty	pelvis_to_ground_tz	left_hip_abduction	left_hip_rotation	left_hip_flexion	left_knee_flexion	left_ankle_flexion	left_subtalar_angle	right_hip_abduction	right_hip_rotation	right_hip_flexion	right_knee_flexion	right_ankle_flexion	right_subtalar_angle
      0.99000000	     96.24650521	      6.64800192	     -2.98624786	     -0.86863143	     -0.67433434	      0.74007440	    -12.90686956	    -12.36962781	      5.64167888	    -25.40352152	      4.03840966	     -7.63736467	      1.25904355	     -9.18453845	     33.37998584	    -52.13512229	     -2.95281623	    -10.67014936
      1.00000000	     96.44349024	      7.09875988	     -2.67453916	     -0.85823867	     -0.67474785	      0.73898127	    -13.14586378	    -12.33905492	      4.56410701	    -25.71045246	      4.22676990	     -7.42320179	      0.52678971	     -8.77507565	     34.04881305	    -49.87353059	     -3.09431202	    -10.41601738
      1.01000000	     96.66631219	      7.55703978	     -2.36188434	     -0.84780188	     -0.67519204	      0.73750888	    -13.40416361	    -12.21059520	      3.52990921	    -26.11838761	      4.59024667	     -7.15150421	     -0.25845541	     -8.45685880	     34.56973830	    -47.40793726	     -3.41656148	     -9.90485007
      1.02000000	     96.87608604	      8.03500908	     -2.15026823	     -0.83729877	     -0.67571953	      0.73573069	    -13.59483994	    -11.91375168	      2.69854952	    -26.69778866	      5.53084038	     -5.99891489	     -1.01946960	     -8.22228810	     35.02620718	    -44.73279842	     -3.48402097	     -8.77231088
      1.03000000	     97.10471209	      8.54205998	     -1.86308852	     -0.82664512	     -0.67626008	      0.73365757	    -13.83765972	    -11.80740751	      1.70730063	    -27.23019722	      5.87741201	     -5.96349986	     -1.81467335	     -8.08858222	     35.21912362	    -41.90493010	     -4.08396637	     -8.16121046
      1.04000000	     97.34139169	      9.04329481	     -1.50620994	     -0.81578009	     -0.67681427	      0.73131074	    -14.08987785	    -11.63919202	      0.63146576	    -27.78708176	      6.18290818	     -5.92492860	     -2.62512204	     -7.97587607	     35.15618086	    -38.99331311	     -4.58306415	     -7.63564276
      1.05000000	     97.53338068	      9.58375103	     -1.17270678	     -0.80468045	     -0.67743828	      0.72878781	    -14.27491973	    -11.51364478	     -0.41300046	    -28.41330154	      6.64034483	     -5.86145611	     -3.35733340	     -7.93770520	     34.92922394	    -36.02772076	     -5.36069663	     -6.88588546
      1.06000000	     97.67819971	     10.15883248	     -0.85429314	     -0.79327657	     -0.67812893	      0.72612524	    -14.38471011	    -11.41157143	     -1.43801129	    -29.09839371	      7.09784332	     -5.75734380	     -4.00854011	     -7.94484237	     34.54359339	    -33.10729702	     -6.12941140	     -6.15317816
      1.07000000	     97.75681641	     10.80585269	     -0.60350983	     -0.78154520	     -0.67891034	      0.72337983	    -14.38493912	    -11.37705214	     -2.36147646	    -29.89685436	      7.74868656	     -5.47216488	     -4.51214932	     -8.10976556	     34.09120832	    -30.33460677	     -7.13291153	     -5.21272442
      1.08000000	     97.80063010	     11.41211928	     -0.33217610	     -0.76946026	     -0.67972638	      0.72059449	    -14.33090668	    -11.31350036	     -3.31574084	    -30.70517962	      8.28592293	     -5.06411745	     -4.98950705	     -8.10972108	     33.47862641	    -27.78887500	     -7.88800736	     -4.48473654
      1.09000000	     97.76442730	     12.03690476	     -0.04994682	     -0.75700764	     -0.68059967	      0.71781654	    -14.16127363	    -11.24135783	     -4.24145622	    -31.59888713	      8.67530246	     -4.67146998	     -5.33157185	     -8.14178326	     32.77289611	    -25.57361246	     -8.51088752	     -3.95808653
      1.10000000	     97.63756388	     12.64712774	      0.19212724	     -0.74421334	     -0.68154003	      0.71512233	    -13.84289919	    -11.12488281	     -5.05727602	    -32.58581552	      8.74862232	     -4.56829498	     -5.53932210	     -8.10859190	     32.04381228	    -23.73208660	     -8.74482342	     -3.74879130
